<?xml version="1.0" encoding="UTF-8" standalone="no"?>
<svg
   xmlns:svg="http://www.w3.org/2000/svg"
   xmlns="http://www.w3.org/2000/svg"
   xmlns:xlink="http://www.w3.org/1999/xlink"
   id="Fire triangle"
   width="195"
   height="170"
   y="0"
   x="0"
   version="1.1">
  <defs
     id="defs">
    <path
       id="bar"
       style="stroke:none;fill-opacity:1"
       d="M 284.12572,532.21731 L 154.95134,532.21731 L
          180.36807,517.54302 L 258.70900,517.54302 L 284.12572,532.21731
          z " />
  </defs>
  <g id="Fire triangle"
     transform="translate(-2.5,-15)">
    <g
       id="fire">
      <path
	 id="fire:red"
	 style="fill:#a90000;stroke:none"
	 d="M 94.985920,160.42147 L 94.985920,160.42147 C
            85.612032,160.75268 73.857112,154.77942 73.454632,140.96651 C
            73.140982,130.20354 68.177152,125.81491 68.177152,125.81491 C
            75.862882,124.91964 75.564982,130.14474 77.626072,130.11826 C
            77.626072,130.11826 79.459042,121.03084 75.839402,116.76088 C
            82.885402,115.94450 83.829102,124.23509 84.825952,122.44085 C
            84.908572,120.24028 86.341982,110.48282 81.519362,104.35864 C
            81.519362,104.35864 85.543832,104.41852 92.003022,110.88913 C
            91.250272,106.99890 90.630172,99.258550 97.592790,88.413380 C
            97.722000,92.132660 98.604590,100.06417 101.47160,105.20309 C
            104.95804,111.45221 102.14971,118.83492 104.97299,119.13393 C
            107.23341,119.37334 109.05613,107.55795 109.46814,104.19716 C
            112.04646,104.45717 110.58268,123.72556 113.03397,124.85209 C
            115.06052,125.78358 117.35639,118.06457 118.61990,114.85362 C
            119.25488,113.23998 121.38130,127.89021 118.02442,133.37153 C
            115.66715,137.22063 123.36974,130.14474 129.76914,130.51691 C
            126.62019,132.41276 123.80165,138.31349 122.50937,147.63566 C
            121.89120,152.09554 113.84541,160.80645 103.34397,160.51925 C
            98.218570,160.37905 95.583930,160.62077 94.985920,160.42147 z
            " />
      <path
	 id="fire:yellow"
	 style="fill:#efc517;stroke:none"
	 d="M 101.65545,160.68084 C 103.41801,160.53399
            113.11204,155.49111 112.32868,148.14717 C 112.32868,148.14717
            109.92970,150.00764 107.13893,149.32218 C 108.60775,146.87416
            114.67877,137.47388 111.74121,134.29153 C 111.74121,134.29153
            105.86601,142.22302 104.98474,140.90107 C 104.10347,139.57918
            106.69833,128.80798 105.22951,126.84961 C 105.22951,126.84961
            102.09613,134.58526 101.06791,133.94876 C 99.354310,132.92062
            97.787650,123.07963 97.249070,121.80673 C 97.249070,121.80673
            96.955340,134.24250 95.584440,132.87166 C 94.213530,131.50076
            91.324922,126.35997 90.884322,124.64638 C 88.093562,126.31101
            89.602422,139.70822 90.875422,143.33123 C 86.860682,140.54054
            85.547632,136.73946 82.365292,134.43837 C 82.365292,134.43837
            81.697602,144.12650 86.153012,147.55370 C 86.153012,147.55370
            83.931942,148.24508 81.532982,147.41276 C 81.337082,150.05658
            88.387362,160.48503 94.947940,160.82772 C 101.50859,161.17049
            101.75337,160.77876 101.65545,160.68084 z " />
    </g>
    <g
       id="fuel">
      <use
	 xlink:href="#bar"
	 id="bar:fuel"
	 style="fill:#7c4e1a"
	 transform="matrix(1.384264,0,0,1.384264,
                    -203.8993,-558.8669)" />
      <path
	 style="fill:#fff" 
	 d="M 81.142186,162.31054 L 88.378748,162.31054 L
	    88.378748,164.33734 L 83.823684,164.33734 L 83.823684,166.27359
	    L 88.107116,166.27359 L 88.107116,168.30038 L
	    83.823684,168.30038 L 83.823684,172.70918 L 81.142186,172.70918
	    L 81.142186,162.31054 M 90.893088,162.31054 L
	    93.574586,162.31054 L 93.574586,168.54415 C 93.574582,169.40317
	    93.71388,170.0184 93.992482,170.38986 C 94.275718,170.75668
	    94.735402,170.94009 95.371538,170.94009 C 96.012305,170.94009
	    96.47199,170.75668 96.750594,170.38986 C 97.033827,170.0184
	    97.175447,169.40317 97.175455,168.54415 L 97.175455,162.31054 L
	    99.856953,162.31054 L 99.856953,168.54415 C 99.856942,170.01608
	    99.487801,171.11189 98.749529,171.8316 C 98.011238,172.55131
	    96.885242,172.91117 95.371538,172.91117 C 93.862465,172.91117
	    92.738791,172.55131 92.000512,171.8316 C 91.262228,171.11189
	    90.893087,170.01608 90.893088,168.54415 L 90.893088,162.31054 M
	    102.48273,162.31054 L 109.71929,162.31054 L 109.71929,164.33734
	    L 105.16423,164.33734 L 105.16423,166.27359 L
	    109.44766,166.27359 L 109.44766,168.30038 L 105.16423,168.30038
	    L 105.16423,170.68239 L 109.87252,170.68239 L
	    109.87252,172.70918 L 102.48273,172.70918 L 102.48273,162.31054
	    M 112.23363,162.31054 L 114.91513,162.31054 L
	    114.91513,170.68239 L 119.62342,170.68239 L 119.62342,172.70918
	    L 112.23363,172.70918 L 112.23363,162.31054" id="text:fuel" />
    </g>
    <g
       id="heat">
      <use
	 xlink:href="#bar"
	 id="bar:heat"
	 style="fill:#e34a30"
	 transform="matrix(0.690448,1.195890,1.195890,
                    -0.690448,-642.6477,204.3012)" />
      <path
	 transform="matrix(0.5,0.866025,-0.866025,0.5,0,0)"
	 style="fill:#ffffff"
	 d="M 138.7867,-71.304375 L 141.4682,-71.304375 L
	    141.4682,-67.34133 L 145.42428,-67.34133 L 145.42428,-71.304375
	    L 148.10578,-71.304375 L 148.10578,-60.905735 L
	    145.42428,-60.905735 L 145.42428,-65.314536 L
	    141.4682,-65.314536 L 141.4682,-60.905735 L 138.7867,-60.905735
	    L 138.7867,-71.304375 M 150.71066,-71.304375 L
	    157.94722,-71.304375 L 157.94722,-69.277581 L
	    153.39216,-69.277581 L 153.39216,-67.34133 L
	    157.67559,-67.34133 L 157.67559,-65.314536 L
	    153.39216,-65.314536 L 153.39216,-62.93253 L
	    158.10045,-62.93253 L 158.10045,-60.905735 L
	    150.71066,-60.905735 L 150.71066,-71.304375 M
	    166.77179,-62.800196 L 162.5789,-62.800196 L
	    161.91723,-60.905735 L 159.22181,-60.905735 L
	    163.07341,-71.304375 L 166.27032,-71.304375 L
	    170.12192,-60.905735 L 167.42649,-60.905735 L
	    166.77179,-62.800196 M 163.24754,-64.729482 L
	    166.09619,-64.729482 L 164.67535,-68.86665 L
	    163.24754,-64.729482 M 170.25425,-71.304375 L
	    179.838,-71.304375 L 179.838,-69.277581 L 176.39036,-69.277581
	    L 176.39036,-60.905735 L 173.70886,-60.905735 L
	    173.70886,-69.277581 L 170.25425,-69.277581 L
	    170.25425,-71.304375" id="text:heat" />
    </g>
    <g
       id="oxygen">
      <use
	 xlink:href="#bar"
	 id="bar:oxygen"
	 style="fill:#588dd4"
	 transform="matrix(-0.690448,1.195890,-1.195890,
                    -0.690448,842.6477,204.3012)" />
      <path
	 transform="matrix(0.5,-0.866025,0.866025,0.5,0.,0.)"
	 style="fill:#ffffff"
	 d="M -85.545293,103.64488 C -86.362517,103.64489
	    -86.996325,103.9467 -87.446719,104.55032 C -87.897121,105.15396
	    -88.122321,106.00368 -88.122317,107.09949 C
	    -88.122321,108.19066 -87.897121,109.03806 -87.446719,109.64169
	    C -86.996325,110.24532 -86.362517,110.54713
	    -85.545293,110.54713 C -84.723438,110.54713
	    -84.087309,110.24532 -83.636902,109.64169 C
	    -83.186512,109.03806 -82.961313,108.19066 -82.961304,107.09949
	    C -82.961313,106.00368 -83.186512,105.15396
	    -83.636902,104.55032 C -84.087309,103.9467 -84.723438,103.64489
	    -85.545293,103.64488 M -85.545293,101.70167 C
	    -83.873718,101.70168 -82.564312,102.17994 -81.617073,103.13644
	    C -80.669853,104.09297 -80.196238,105.41398
	    -80.196227,107.09949 C -80.196238,108.78036
	    -80.669853,110.09905 -81.617073,111.05557 C
	    -82.564312,112.01209 -83.873718,112.49034 -85.545293,112.49034
	    C -87.212237,112.49034 -88.521643,112.01209
	    -89.473514,111.05557 C -90.420745,110.09905 -90.89436,108.78036
	    -90.894359,107.09949 C -90.89436,105.41398 -90.420745,104.09297
	    -89.473514,103.13644 C -88.521643,102.17994
	    -87.212237,101.70168 -85.545293,101.70167 M
	    -72.381576,106.98108 L -68.773742,112.28836 L
	    -71.566679,112.28836 L -73.99744,108.73625 L
	    -76.407306,112.28836 L -79.214172,112.28836 L
	    -75.606339,106.98108 L -79.074874,101.88972 L
	    -76.274972,101.88972 L -73.99744,105.23985 L
	    -71.726873,101.88972 L -68.913041,101.88972 L
	    -72.381576,106.98108 M -68.620515,101.88972 L
	    -65.68828,101.88972 L -63.320203,105.59506 L
	    -60.952127,101.88972 L -58.012927,101.88972 L
	    -61.975972,107.90742 L -61.975972,112.28836 L
	    -64.65747,112.28836 L -64.65747,107.90742 L
	    -68.620515,101.88972 M -47.516776,111.51525 C
	    -48.185419,111.84028 -48.87959,112.08406 -49.59929,112.24657 C
	    -50.319007,112.40909 -51.061932,112.49034 -51.828067,112.49034
	    C -53.560018,112.49034 -54.932108,112.00744
	    -55.944341,111.04164 C -56.956579,110.07119
	    -57.462696,108.75714 -57.462696,107.09949 C
	    -57.462696,105.42327 -56.947292,104.10458 -55.916481,103.14341
	    C -54.885675,102.18226 -53.474117,101.70168
	    -51.681804,101.70167 C -50.989961,101.70168
	    -50.328294,101.76668 -49.696799,101.89669 C
	    -49.060678,102.02671 -48.461694,102.2194 -47.899847,102.47477 L
	    -47.899847,104.62694 C -48.480268,104.29727
	    -49.058356,104.05118 -49.634115,103.88866 C
	    -50.205247,103.72615 -50.778692,103.64489 -51.354452,103.64488
	    C -52.422414,103.64489 -53.246596,103.94438
	    -53.827002,104.54336 C -54.402774,105.13771
	    -54.690657,105.98975 -54.690654,107.09949 C
	    -54.690657,108.19995 -54.41206,109.04967 -53.854862,109.64865 C
	    -53.297673,110.24764 -52.505993,110.54713 -51.479821,110.54713
	    C -51.201231,110.54713 -50.943529,110.53088
	    -50.706714,110.49837 C -50.465271,110.46123
	    -50.249358,110.40551 -50.058975,110.33122 L
	    -50.058975,108.31139 L -51.695734,108.31139 L
	    -51.695734,106.51443 L -47.516776,106.51443 L
	    -47.516776,111.51525 M -45.162631,101.88972 L
	    -37.926069,101.88972 L -37.926069,103.91651 L
	    -42.481133,103.91651 L -42.481133,105.85277 L
	    -38.197702,105.85277 L -38.197702,107.87956 L
	    -42.481133,107.87956 L -42.481133,110.26157 L
	    -37.772841,110.26157 L -37.772841,112.28836 L
	    -45.162631,112.28836 L -45.162631,101.88972 M
	    -35.411727,101.88972 L -32.416808,101.88972 L
	    -28.634851,109.02181 L -28.634851,101.88972 L
	    -26.092651,101.88972 L -26.092651,112.28836 L
	    -29.087571,112.28836 L -32.869528,105.15627 L
	    -32.869528,112.28836 L -35.411727,112.28836 L
	    -35.411727,101.88972" id="text:oxygen" />
    </g>
  </g>
</svg>
